<svg xmlns="http://www.w3.org/2000/svg" xmlns:xlink="http://www.w3.org/1999/xlink" width="500" zoomAndPan="magnify" viewBox="0 0 375 374.999991" height="500" preserveAspectRatio="xMidYMid meet" version="1.0"><defs><g/></defs><g fill="#ffffff" fill-opacity="1"><g transform="translate(68.302735, 172.337977)"><g><path d="M 1.828125 0 L 1.828125 -11.75 L 16.671875 -11.75 L 16.671875 -64.28125 L 30.15625 -64.28125 L 30.15625 -10.5625 C 30.15625 -7.007812 29.203125 -4.359375 27.296875 -2.609375 C 25.390625 -0.867188 22.71875 0 19.28125 0 Z M 1.828125 0 "/></g></g></g><g fill="#ffffff" fill-opacity="1"><g transform="translate(105.599806, 172.337977)"><g><path d="M 0.46875 0 L 27.703125 -64.28125 L 41.5 -64.28125 L 68.40625 0 L 54.59375 0 L 48.015625 -15.71875 L 20.5625 -15.71875 L 13.8125 0 Z M 24.765625 -26.984375 L 44.359375 -26.984375 L 34.765625 -50.15625 L 34.359375 -50.15625 Z M 24.765625 -26.984375 "/></g></g></g><g fill="#ffffff" fill-opacity="1"><g transform="translate(174.480359, 172.337977)"><g><path d="M 36.265625 1.1875 C 29.703125 1.1875 23.972656 -0.171875 19.078125 -2.890625 C 14.191406 -5.617188 10.398438 -9.484375 7.703125 -14.484375 C 5.003906 -19.484375 3.65625 -25.316406 3.65625 -31.984375 C 3.65625 -38.753906 5.003906 -44.625 7.703125 -49.59375 C 10.398438 -54.570312 14.191406 -58.421875 19.078125 -61.140625 C 23.972656 -63.867188 29.703125 -65.234375 36.265625 -65.234375 C 41.554688 -65.234375 46.25 -64.320312 50.34375 -62.5 C 54.445312 -60.675781 57.804688 -58.066406 60.421875 -54.671875 C 63.046875 -51.285156 64.703125 -47.238281 65.390625 -42.53125 L 51.421875 -42.53125 C 50.835938 -45.976562 49.195312 -48.640625 46.5 -50.515625 C 43.800781 -52.390625 40.390625 -53.328125 36.265625 -53.328125 C 30.335938 -53.328125 25.65625 -51.445312 22.21875 -47.6875 C 18.78125 -43.9375 17.0625 -38.703125 17.0625 -31.984375 C 17.0625 -25.316406 18.78125 -20.09375 22.21875 -16.3125 C 25.65625 -12.53125 30.335938 -10.640625 36.265625 -10.640625 C 40.390625 -10.640625 43.800781 -11.585938 46.5 -13.484375 C 49.195312 -15.390625 50.835938 -18.0625 51.421875 -21.5 L 65.390625 -21.5 C 64.703125 -16.789062 63.046875 -12.726562 60.421875 -9.3125 C 57.804688 -5.90625 54.445312 -3.300781 50.34375 -1.5 C 46.25 0.289062 41.554688 1.1875 36.265625 1.1875 Z M 36.265625 1.1875 "/></g></g></g><g fill="#ffffff" fill-opacity="1"><g transform="translate(240.980244, 172.337977)"><g><path d="M 6.75 0 L 6.75 -64.28125 L 20.15625 -64.28125 L 20.15625 -38.09375 L 20.46875 -38.09375 L 48.09375 -64.28125 L 64.6875 -64.28125 L 36.578125 -37.859375 L 65.234375 0 L 49.203125 0 L 27.0625 -29.609375 L 20.15625 -24.046875 L 20.15625 0 Z M 6.75 0 "/></g></g></g><g fill="#ffffff" fill-opacity="1"><g transform="translate(11.664883, 273.414803)"><g><path d="M 6.75 0 L 6.75 -64.265625 L 25.078125 -64.265625 L 44.125 -18.96875 L 44.4375 -18.96875 L 63.40625 -64.265625 L 81.65625 -64.265625 L 81.65625 0 L 68.234375 0 L 68.234375 -45.390625 L 67.921875 -45.390625 L 49.515625 0 L 38.015625 0 L 19.671875 -45.390625 L 19.359375 -45.390625 L 19.359375 0 Z M 6.75 0 "/></g></g></g><g fill="#ffffff" fill-opacity="1"><g transform="translate(100.047754, 273.414803)"><g><path d="M 7.140625 0 L 7.140625 -64.265625 L 20.625 -64.265625 L 20.625 0 Z M 7.140625 0 "/></g></g></g><g fill="#ffffff" fill-opacity="1"><g transform="translate(127.816172, 273.414803)"><g><path d="M 6.75 0 L 6.75 -64.265625 L 20.15625 -64.265625 L 20.15625 -11.75 L 53.25 -11.75 L 53.25 0 Z M 6.75 0 "/></g></g></g><g fill="#ffffff" fill-opacity="1"><g transform="translate(182.876962, 273.414803)"><g><path d="M 6.75 0 L 6.75 -64.265625 L 20.15625 -64.265625 L 20.15625 -11.75 L 53.25 -11.75 L 53.25 0 Z M 6.75 0 "/></g></g></g><g fill="#ffffff" fill-opacity="1"><g transform="translate(237.937752, 273.414803)"><g><path d="M 53.640625 0 L 6.75 0 L 6.75 -64.265625 L 53.640625 -64.265625 L 53.640625 -52.53125 L 20.15625 -52.53125 L 20.15625 -39.046875 L 51.015625 -39.046875 L 51.015625 -27.609375 L 20.15625 -27.609375 L 20.15625 -11.75 L 53.640625 -11.75 Z M 53.640625 0 "/></g></g></g><g fill="#ffffff" fill-opacity="1"><g transform="translate(295.537368, 273.414803)"><g><path d="M 6.75 0 L 6.75 -64.265625 L 39.984375 -64.265625 C 46.867188 -64.265625 52.253906 -62.71875 56.140625 -59.625 C 60.023438 -56.53125 61.96875 -52.257812 61.96875 -46.8125 C 61.96875 -43.375 61.160156 -40.4375 59.546875 -38 C 57.929688 -35.570312 55.671875 -33.851562 52.765625 -32.84375 L 52.765625 -32.453125 C 55.671875 -32.453125 57.929688 -31.671875 59.546875 -30.109375 C 61.160156 -28.546875 61.96875 -26.207031 61.96875 -23.09375 L 61.96875 0 L 48.484375 0 L 48.484375 -24.4375 L 20.15625 -24.4375 L 20.15625 0 Z M 20.15625 -36.109375 L 39.125 -36.109375 C 42.1875 -36.109375 44.550781 -36.820312 46.21875 -38.25 C 47.882812 -39.675781 48.71875 -41.710938 48.71875 -44.359375 C 48.71875 -47.003906 47.882812 -49.039062 46.21875 -50.46875 C 44.550781 -51.894531 42.1875 -52.609375 39.125 -52.609375 L 20.15625 -52.609375 Z M 20.15625 -36.109375 "/></g></g></g></svg>